<?xml version="1.0" encoding="UTF-8"?>
<svg version="1.1" viewBox="0 0 300 300" xmlns="http://www.w3.org/2000/svg">
 <path d="m233 146.47c3.9966 2.7511 7.5232-3.5113 3.7826-6.289-6.3616-4.734-12.88-9.2274-19.566-13.503-4.2373-2.9189-8.4593-5.838-12.697-8.7571 2.6937 1.3449 5.3988 2.6784 8.0886 4.0233 3.6565 1.8149 7.7525-2.751 4.5506-5.7236-8.1919-7.5958-16.976-14.469-26.073-20.942 2.3383 0.98954 4.6767 1.983 7.0304 2.9725 4.39 1.8569 7.7906-3.5539 3.7826-6.289l-28.465-19.456 4.9441 2.113c4.306 1.8416 8.0886-3.9546 3.7826-6.2929-9.4641-5.1579-18.546-10.896-27.204-17.201 3.6259 1.2751 7.2404 2.5363 10.866 3.8115 4.0119 1.4029 6.5909-4.7044 2.8924-6.6596-3.0185-1.6012-6.0216-3.2165-9.0134-4.8601l1.6736 0.46738c4.2793 1.1619 6.2623-4.3783 2.8885-6.6594a196.03 196.03 0 0 0-6.629-4.3075c0.28272-1.176 0.0454-2.4514-0.92085-3.3298-4.3099-3.8823-8.7993-7.5522-13.449-11.038-0.12472-1.3461-0.89017-2.6497-2.5484-3.2164-1.4329-0.49594-2.8771-0.99188-4.31-1.4737-3.7099-1.2754-5.5975 3.0039-3.8972 5.6253-0.70682-0.28344-1.4022-0.56694-2.109-0.86436-3.8819-1.587-6.759 4.9592-2.8924 6.6594 0.63808 0.28351 1.2762 0.58108 1.9143 0.86427-3.9393-1.1475-6.0216 4.6759-2.6211 6.7448 2.4224 1.4736 4.8601 2.9329 7.2978 4.3783-1.983 1.1052-2.9344 4.1516-0.96282 5.852 3.4692 3.0181 7.0111 5.9509 10.641 8.7848-0.42802-0.18416-0.86739-0.36832-1.2915-0.55248-4.39-1.8703-7.7906 3.5564-3.7826 6.2914 9.7048 6.6298 19.414 13.262 29.118 19.907l-10.274-4.348a5.0868 5.0868 0 0 0-1.1309-0.32867c-3.9546-2.9725-7.9625-5.8802-12.032-8.7116-3.4272-2.3806-7.8899 3.16-4.5467 5.7238 1.6162 1.2455 3.2285 2.4797 4.8601 3.7252-1.3908 1.5016-1.6009 4.2106 0.59605 5.8115 4.2754 3.1025 8.5127 6.2623 12.708 9.4794-0.0341 0.02272-0.0568 0.04544-0.12376 0.06816-0.13341-0.03408-0.2556-0.08316-0.38208-0.14173-3.4005-1.2321-5.7962 3.018-4.0675 5.5829-3.3867-1.0341-6.5315 3.3444-3.7268 6.0649 2.6214 2.536 5.2428 5.0859 7.8641 7.6226-3.4704-0.89282-6.4315 3.1028-3.7111 6.0216 2.4074 2.5937 4.7034 5.2715 6.8851 8.0349-3.3012-1.7003-6.545-3.4998-9.7344-5.4275-1.2185-0.73665-2.4796-0.66616-3.4856-0.12376-1.6293-0.62315-3.2859-1.147-5.0014-1.5863-3.4999-0.8786-6.4759 3.5561-3.6412 6.0917 2.7778 2.4943 5.5679 4.974 8.3752 7.439-11.493-6.6727-23.253-12.893-35.48-18.264-3.53-1.5587-8.1192 2.8912-4.5502 5.7241l9.267 7.3544c-12.427-6.8158-25.221-12.951-38.626-17.966-3.6129-1.3473-6.1631 3.6836-3.6416 6.0917 1.3038 1.248 2.6215 2.452 3.9817 3.6414-0.76476-0.39594-1.5289-0.80703-2.2953-1.2182-4.3072-2.2383-7.6937 3.628-3.7834 6.2915 10.189 6.9428 20.276 14.014 30.28 21.183-5.6671-3.0606-11.421-5.9935-17.244-8.7993-3.5564-1.7142-8.0619 2.9613-4.5467 5.7242 6.5305 5.1445 13.048 10.288 19.582 15.416-1.7423-0.90628-3.4866-1.7995-5.2421-2.6782-3.5724-1.7702-7.9647 2.9057-4.5501 5.7253l49.324 40.595c-2.1104 0.25543-3.939 2.4374-3.2872 4.6193 1.7286 5.7386 5.9528 9.7202 10.343 13.674 5.597 5.0586 11.194 10.103 16.805 15.146 1.5586 1.4028 3.1048 2.8065 4.6618 4.2093-2.8905-1.7429-5.7811-3.4866-8.6714-5.2427-3.6832-2.2256-7.4238 2.763-4.5486 5.7243l36.983 37.831c-4.2793-2.0962-8.0772 4.18-3.7708 6.3065 6.518 3.216 13.036 6.4318 19.568 9.6485 3.7423 1.8418 7.552-2.6359 4.5484-5.724l-31.821-32.541c5.6242 3.4006 11.25 6.7867 16.877 10.187 3.5839 2.1686 7.6798-2.89 4.5467-5.7242-10.301-9.2809-20.586-18.576-30.887-27.857l-8.2912-7.4814 22.359 14.523c3.4998 2.2679 7.8077-3.0316 4.5506-5.7243-19.329-15.912-38.655-31.81-57.983-47.722 11.236 7.5237 22.205 15.444 33.144 23.379 3.3852 2.4515 7.8479-3.1175 4.5467-5.7242-16.635-13.107-33.283-26.214-49.919-39.32 17.386 10.443 34.205 21.778 50.798 33.368 3.4284 2.395 7.8212-3.0884 4.5477-5.7241-7.4515-5.994-14.963-11.917-22.528-17.782 0.72213 0.48169 1.4442 0.97779 2.1817 1.4595 4.0234 2.6917 7.5958-3.5567 3.7826-6.2917l-40.748-29.23c-5.8535-4.2089-11.847-8.3176-17.728-12.569 24.683 12.157 47.595 27.645 70.28 42.976 3.4571 2.3381 7.851-3.1029 4.5498-5.7242-11.209-8.8984-22.417-17.782-33.638-26.681 16.648 9.5496 32.687 20.12 48.658 30.705 3.4699 2.3103 7.8347-3.0749 4.5467-5.7242-6.1476-4.9314-12.242-9.9186-18.292-14.977 8.175 5.8803 16.366 11.746 24.543 17.626 3.4272 2.4663 7.6645-2.9614 4.5467-5.7243-1.6582-1.4736-3.3297-2.9328-4.9861-4.4063 6.7857 4.1655 13.572 8.3177 20.361 12.483 3.5554 2.1819 7.7639-2.9614 4.5467-5.7242-2.067-1.7856-4.1494-3.5713-6.2203-5.3562 3.9546 2.6358 7.8938 5.271 11.845 7.9061 3.4722 2.3102 7.8662-3.1173 4.5497-5.7242-10.968-8.6152-21.92-17.229-32.888-25.845-3.868-3.0327-7.8073-6.0363-11.647-9.1392 7.8518 4.1943 15.532 8.6854 23.013 13.475 6.5166 4.4908 13.034 8.9969 19.566 13.503zm-60.743-21.125c-0.73744-1.0775-1.4902-2.1243-2.2543-3.1751 1.4596 0.71074 2.9191 1.4175 4.3787 2.113 0.18337 0.0841 0.38206 0.15667 0.56544 0.21008 3.3738 2.9077 6.7476 5.7962 10.118 8.7-4.264-2.6211-8.5433-5.2422-12.807-7.8479zm8.8107-27.277c-1.811-1.5283-3.6412-3.0451-5.4675-4.5353 3.2858 2.1854 6.5336 4.4093 9.7468 6.675l-4.2793-2.1243z" fill="#8ec1d6" stroke-width="1.4175"/>
 <path d="m249.12 145.51a2829.4 2829.4 0 0 0-116.39-134.06c-3.2018-3.4715-8.4326 1.5868-5.3721 5.0726-2.151-2.0262-6.9691-0.02667-6.289 3.7691 5.3415 30.337 13.377 60.162 24.029 89.138 1.6162 4.3787 8.8567 2.495 7.2291-1.941a519.06 519.06 0 0 1-24.033-89.138c-0.0841-0.59529-0.31335-1.0771-0.60744-1.4596 38.594 41.742 75.889 84.618 111.84 128.55-28.198 4.7035-56.666 7.6913-85.258 8.9828-3.4312 0.15304-4.4207 3.9239-2.9497 5.9796 0.0227 0.4394 0.13341 0.89018 0.34005 1.3602a1360.2 1360.2 0 0 0 58.011 113.18c2.3497 4.0959 8.826 0.42408 6.4763-3.6832a1362.8 1362.8 0 0 1-56.452-109.83c27.816-1.4596 55.532-4.5314 82.977-9.1661 0.82147-0.14135 1.4442-0.46608 1.8836-0.90548 3.0338 2.1664 7.2978-2.495 4.562-5.8535z" fill="#3d4b5f" stroke-width="1.4175"/>
 <path d="m210.26 277.51-119.92-132.28c-10.003-11.023-19.993-22.061-29.996-33.084 4.0948 0.9475 8.7565 0.79082 12.482 1.1042l26.497 2.2084 52.995 4.4207c4.8027 0.39737 4.776-6.8851 0-7.2824-16.196-1.3449-32.393-2.7051-48.585-4.05l-23.552-1.9716c-4.1646-0.35505-8.345-0.6954-12.511-1.0468-2.848-0.2407-6.8294 0.0683-8.87-2.197-2.6638-2.9764-6.8294 0.1987-6.2061 3.3852-2.1821 0.85211-3.6699 3.8285-1.6151 6.0942l119.92 132.28c11.348 12.525 22.699 25.038 34.047 37.562 3.2018 3.5305 8.4746-1.6429 5.2995-5.1581z" fill="#3d4b5f" stroke-width="1.4175"/>
</svg>
